<svg xmlns="http://www.w3.org/2000/svg" width="19" height="20" fill="none" viewBox="0 0 19 20"><path fill="#130022" fill-rule="evenodd" stroke="#130022" stroke-width=".8" d="M9.263.639c4.664 0 8.458 3.794 8.458 8.459 0 2.2-.844 4.208-2.226 5.714l2.72 2.714a.65.65 0 1 1-.921.922l-2.753-2.744a8.418 8.418 0 0 1-5.278 1.854c-4.665 0-8.46-3.796-8.46-8.46 0-4.665 3.795-8.46 8.46-8.46Zm0 1.303c-3.947 0-7.157 3.21-7.157 7.156 0 3.946 3.21 7.156 7.157 7.156 3.945 0 7.156-3.21 7.156-7.156 0-3.947-3.211-7.156-7.156-7.156Z" clip-rule="evenodd"/></svg>