<svg xmlns="http://www.w3.org/2000/svg" width="13" height="14" fill="none" viewBox="0 0 13 14"><path fill="url(#paint0_linear_33818_35508)" d="M.51.221a1.094 1.094 0 0 0-.25.764v12.03c-.017.277.073.55.25.764l.04.04 6.697-6.74v-.158L.55.18l-.04.04Z"/><path fill="url(#paint1_linear_33818_35508)" d="M9.478 9.327 7.246 7.079V6.92L9.48 4.674l.05.029 2.645 1.512c.756.432.756 1.138 0 1.57L9.53 9.299l-.05.029Z"/><path fill="url(#paint2_linear_33818_35508)" d="M9.528 9.297 7.245 7 .508 13.779a.876.876 0 0 0 1.123.033l7.897-4.515Z"/><path fill="url(#paint3_linear_33818_35508)" d="M9.528 4.703 1.631.188A.876.876 0 0 0 .508.22l6.737 6.78 2.283-2.298Z"/><path fill="#0F0F0F" d="M9.478 9.246 1.63 13.732a.896.896 0 0 1-1.083.006l-.04.04.04.04a.896.896 0 0 0 1.083-.006l7.897-4.515-.05-.05Z" opacity=".2"/><path fill="#0F0F0F" d="M.51 13.7a1.094 1.094 0 0 1-.25-.764v.079c-.017.277.073.55.25.764l.04-.04-.04-.04ZM12.176 7.706 9.48 9.246l.05.051 2.646-1.512A.95.95 0 0 0 12.742 7a1.016 1.016 0 0 1-.566.706Z" opacity=".12"/><path fill="#0F0D13" d="m1.635.266 10.542 6.027a1.007 1.007 0 0 1 .567.706.958.958 0 0 0-.567-.785L1.635.187C.88-.245.262.114.262.985v.079c0-.87.618-1.23 1.373-.798Z" opacity=".25"/><defs><linearGradient id="paint0_linear_33818_35508" x1="6.653" x2="-2.475" y1=".858" y2="9.93" gradientUnits="userSpaceOnUse"><stop stop-color="#00A0FF"/><stop offset=".007" stop-color="#00A1FF"/><stop offset=".26" stop-color="#00BEFF"/><stop offset=".512" stop-color="#00D2FF"/><stop offset=".76" stop-color="#00DFFF"/><stop offset="1" stop-color="#00E3FF"/></linearGradient><linearGradient id="paint1_linear_33818_35508" x1="13.158" x2=".078" y1="7" y2="7" gradientUnits="userSpaceOnUse"><stop stop-color="#FFE000"/><stop offset=".409" stop-color="#FFBD00"/><stop offset=".775" stop-color="orange"/><stop offset="1" stop-color="#FF9C00"/></linearGradient><linearGradient id="paint2_linear_33818_35508" x1="8.287" x2="-4.091" y1="8.248" y2="20.551" gradientUnits="userSpaceOnUse"><stop stop-color="#FF3A44"/><stop offset="1" stop-color="#C31162"/></linearGradient><linearGradient id="paint3_linear_33818_35508" x1="-1.189" x2="4.339" y1="-3.783" y2="1.71" gradientUnits="userSpaceOnUse"><stop stop-color="#32A071"/><stop offset=".069" stop-color="#2DA771"/><stop offset=".476" stop-color="#15CF74"/><stop offset=".801" stop-color="#06E775"/><stop offset="1" stop-color="#00F076"/></linearGradient></defs></svg>