<svg xmlns="http://www.w3.org/2000/svg" width="19" height="17" fill="none" viewBox="0 0 19 17"><path stroke="#FF3269" d="M5.592 6.753a4.089 4.089 0 0 1 8.119 0l.137 1.133a5 5 0 0 0 .744 2.152l.096.146.404.618c.39.595.585.893.54 1.139a.625.625 0 0 1-.184.34c-.181.172-.537.172-1.249.172H5.104c-.712 0-1.068 0-1.249-.172a.625.625 0 0 1-.184-.34c-.045-.246.15-.544.54-1.14l.405-.617.095-.146a5 5 0 0 0 .744-2.152l.137-1.133Z" strokeWidth="1.2"/><path stroke="#FF3269" d="M7.552 12.723c.124.494.397.93.776 1.242.38.312.845.48 1.324.48.478 0 .943-.168 1.323-.48.38-.311.653-.748.777-1.242" strokeLinecap="round" strokeWidth="1.2"/></svg>